# xmcd CD database file
#
# Track frame offsets:
#	150
#	13763
#	25348
#
# Disc length: 979 seconds
#
# Revision: 0
# Processed by: cddbd v1.5.2PL0 Copyright (c) Steve Scherf et al.
# Submitted via: CDex 1.70beta3
#
DISCID=1b03d103
DTITLE=Kemuri - along the longest way...
DYEAR=1998
DGENRE=J-ROCK
TTITLE0=along the longest way...
TTITLE1=birthday
TTITLE2=deepest river
EXTD=YEAR: 1998
EXTT0=
EXTT1=
EXTT2=
PLAYORDER=
